<svg xmlns="http://www.w3.org/2000/svg" xmlns:xlink="http://www.w3.org/1999/xlink" id="Layer_1" data-name="Layer 1" width="713.754" height="92.876" viewBox="0 0 713.754 92.876"><defs><style>.cls-dms-1{fill:none;}.cls-dms-2{clip-path:url(#clip-path);}.cls-dms-3{fill:#010101;}.cls-dms-4{fill:#414142;}.cls-dms-5{fill:#0856a4;}.cls-dms-6{fill:#7a7c81;}</style><clipPath id="clip-path"><rect class="cls-dms-1" width="713.754" height="92.876"></rect></clipPath></defs><g id="Artwork_24" data-name="Artwork 24"><g class="cls-dms-2"><rect class="cls-dms-3" x="324.8108" y="40.2324" width="12.8418" height="12.8432" transform="translate(64.0259 247.8805) rotate(-44.9999)"></rect><g class="cls-dms-2"><path class="cls-dms-4" d="M0,79.8316V21.1176h22.055c19.044,0,28.453,9.109,28.453,29.358s-9.409,29.356-28.453,29.356Zm22.055-12.42c10.99,0,14.377-6.549,14.377-16.936,0-10.389-3.387-16.936-14.377-16.936h-8.129v33.872Z"></path><polygon class="cls-dms-4" points="95.978 21.118 95.978 33.539 67.3 33.539 67.3 43.626 91.913 43.626 91.913 56.047 67.3 56.047 67.3 67.412 97.484 67.412 97.484 79.832 53.373 79.832 53.373 21.118 95.978 21.118"></polygon><path class="cls-dms-4" d="M133.4675,19.9145l22.808,59.917h-14.904l-4.29-12.269h-19.196l-4.216,12.269H98.7665l22.809-59.917Zm-11.592,36.357h11.29l-5.644-16.259Z"></path><polygon class="cls-dms-4" points="171.967 67.412 198.688 67.412 198.688 79.832 158.04 79.832 158.04 21.118 171.967 21.118 171.967 67.412"></polygon><polygon class="cls-dms-4" points="243.901 21.118 243.901 33.539 215.221 33.539 215.221 43.626 239.836 43.626 239.836 56.047 215.221 56.047 215.221 67.412 245.407 67.412 245.407 79.832 201.296 79.832 201.296 21.118 243.901 21.118"></polygon><path class="cls-dms-4" d="M263.3786,79.832h-13.927V21.118h25.969c10.613,0,22.131,3.012,22.131,19.196,0,10.311-4.518,15.279-10.539,17.537l13.4,21.981h-16.711L272.26,59.584h-8.881Zm13.096-32.744c2.937,0,6.925-.527,6.925-6.774,0-6.173-3.988-6.775-6.925-6.775h-13.096V47.088Z"></path><polygon class="cls-dms-4" points="314.71 21.054 314.7 21.064 314.7 21.055 301.853 21.055 301.853 79.861 314.7 79.861 314.7 39.203 321.651 46.154 330.73 37.073 314.71 21.054"></polygon><rect class="cls-dms-4" x="320.2671" y="42.1084" width="12.8418" height="0.0064" transform="translate(65.8114 243.2131) rotate(-44.9727)"></rect><path class="cls-dms-4" d="M308.2781,17.2463a8.623,8.623,0,1,0-8.623-8.622,8.6222,8.6222,0,0,0,8.623,8.622"></path><rect class="cls-dms-5" x="366.984" y="21.118" width="13.925" height="58.714"></rect><polygon class="cls-dms-5" points="418.148 47.013 423.569 55.218 423.492 44.302 423.492 21.118 437.419 21.118 437.419 79.832 424.546 79.832 406.706 53.938 401.287 45.733 401.364 56.648 401.364 79.832 387.437 79.832 387.437 21.118 400.308 21.118 418.148 47.013"></polygon><polygon class="cls-dms-5" points="486.951 21.118 486.951 33.539 458.273 33.539 458.273 43.626 482.888 43.626 482.888 56.047 458.273 56.047 458.273 67.412 488.459 67.412 488.459 79.832 444.348 79.832 444.348 21.118 486.951 21.118"></polygon><path class="cls-dms-5" d="M354.2029,17.2463a8.623,8.623,0,1,0-8.623-8.622,8.6239,8.6239,0,0,0,8.623,8.622"></path><polygon class="cls-dms-5" points="347.782 21.057 347.78 21.054 331.731 37.1 340.813 46.18 347.782 39.21 347.782 79.861 360.625 79.861 360.625 21.055 347.782 21.055 347.782 21.057"></polygon><path class="cls-dms-6" d="M552.2242,79.8611c-17.3651,0-27.99-10.971-27.99-29.371s10.7121-29.372,27.903-29.372c11.922,0,21.511,4.924,24.362,15.722l-13.046,5.27c-1.64-7.084-4.9229-9.33-10.7979-9.33-8.2931,0-13.217,6.048-13.217,17.71,0,11.575,4.578,17.709,12.958,17.709,6.3929,0,9.935-2.937,11.316-9.329l13.476,3.8c-3.369,11.921-12.87,17.191-24.964,17.191"></path><path class="cls-dms-6" d="M607.881,58.4112h-9.1679v21.45H583.671V21.1182h28.036c14.153,0,22.1631,6.586,22.1631,18.691,0,8.544-4.005,14.329-11.4811,17l14.9521,23.052h-16.91Zm-9.1679-10.859H609.127c6.497,0,9.346-2.225,9.346-7.476,0-5.163-2.849-7.388-9.346-7.388H598.7131Z"></path><polygon class="cls-dms-6" points="709.994 79.861 696.465 79.861 696.465 52.892 696.91 34.824 696.731 34.824 682.225 79.861 669.853 79.861 655.344 34.824 655.166 34.824 655.611 52.892 655.611 79.861 641.993 79.861 641.993 21.118 663.799 21.118 673.057 51.023 676.35 63.484 676.528 63.484 679.909 51.113 689.077 21.118 709.994 21.118 709.994 79.861"></polygon><rect class="cls-dms-3" x="504.701" y="8.074" width="3.493" height="84.802"></rect></g></g></g></svg>