<svg xmlns="http://www.w3.org/2000/svg" id="uuid-c4855505-2611-412f-89f5-ddc229b6b99a" viewBox="0 0 726.0514 108.4088"><defs><style>.uuid-0ce37fae-31ab-4405-8f3e-f1f1b819fc45{fill:#0054a6;}.uuid-36ea1111-c66e-40b8-8b1f-e27d203bd4e4{fill:#231f20;}</style></defs><path class="uuid-0ce37fae-31ab-4405-8f3e-f1f1b819fc45" d="m98.4151,98.4149c1.3197-1.3197,2.5565-2.6908,3.7116-4.1064l-28.3106-28.2618c-1.0694,1.4685-2.2265,2.8928-3.5515,4.2178-1.2811,1.2811-2.6568,2.4026-4.0724,3.4448l28.2745,28.2745c1.3578-1.1168,2.6795-2.2999,3.9484-3.5689Z"></path><path class="uuid-36ea1111-c66e-40b8-8b1f-e27d203bd4e4" d="m15.8764,15.8763c-21.1685,21.1686-21.1685,55.4895,0,76.658,17.1833,17.1833,43.0319,20.4154,63.4782,9.702l-14.5112-14.5112c-12.123,3.8358-25.9062.9725-35.5182-8.6395-13.741-13.741-13.741-36.0194,0-49.7605,13.741-13.741,36.0194-13.741,49.7603,0,9.5468,9.5468,12.4444,23.2108,8.7251,35.2735l14.5303,14.5303c10.5742-20.411,7.3145-46.1314-9.8067-63.2525-21.1686-21.1685-55.4895-21.1685-76.658-.0001Z"></path><path class="uuid-36ea1111-c66e-40b8-8b1f-e27d203bd4e4" d="m113.6875,64.0113V27.5806h18.5907v35.8672c0,11.267,4.6949,15.774,12.488,15.774,7.6991,0,12.394-4.507,12.394-15.774V27.5806h18.309v36.4307c0,19.6233-11.4548,30.6087-30.8908,30.6087s-30.8908-10.9855-30.8908-30.6087Z"></path><path class="uuid-36ea1111-c66e-40b8-8b1f-e27d203bd4e4" d="m179.9771,60.4429c0-19.7175,15.4922-34.1772,36.5243-34.1772s36.5247,14.4597,36.5247,34.1772-15.4926,34.1772-36.5247,34.1772-36.5243-14.4591-36.5243-34.1772Zm54.2704,0c0-11.3606-7.7934-18.7782-17.7461-18.7782s-17.7457,7.4176-17.7457,18.7782,7.7931,18.7789,17.7457,18.7789,17.7461-7.4177,17.7461-18.7789Z"></path><path class="uuid-36ea1111-c66e-40b8-8b1f-e27d203bd4e4" d="m286.8281,75.8418h-10.1405v17.464h-18.5904V27.5806h30.0458c17.9332,0,29.2009,9.2955,29.2009,24.3182,0,9.6712-4.6949,16.8068-12.8633,20.7503l14.1776,20.6567h-19.9053l-11.9247-17.464Zm.1879-33.6137h-10.3283v19.2476h10.3283c7.6991,0,11.549-3.5678,11.549-9.577,0-6.1028-3.8499-9.6706-11.549-9.6706Z"></path><path class="uuid-36ea1111-c66e-40b8-8b1f-e27d203bd4e4" d="m322.3203,64.0113V27.5806h18.591v35.8672c0,11.267,4.6942,15.774,12.4876,15.774,7.6992,0,12.3941-4.507,12.3941-15.774V27.5806h18.309v36.4307c0,19.6233-11.4548,30.6087-30.8908,30.6087s-30.8908-10.9855-30.8908-30.6087Z"></path><path class="uuid-36ea1111-c66e-40b8-8b1f-e27d203bd4e4" d="m449.3743,93.3058l-.1879-34.8344-16.9005,28.3559h-8.2626l-16.8068-27.4173v33.8957h-17.1825V27.5806h15.3047l23.0974,37.9329,22.5345-37.9329h15.3047l.1879,65.7252h-17.0889Z"></path><path class="uuid-0ce37fae-31ab-4405-8f3e-f1f1b819fc45" d="m514.5817,27.6715h31.0264c21.7461,0,36.6504,12.6543,36.6504,32.8071s-14.9043,32.8071-36.6504,32.8071h-31.0264V27.6715Zm30.2764,50.8042c11.1543,0,18.6533-6.6553,18.6533-17.9971s-7.499-17.9971-18.6533-17.9971h-11.7168v35.9941h11.7168Z"></path><path class="uuid-0ce37fae-31ab-4405-8f3e-f1f1b819fc45" d="m646.5612,93.2857l-.1875-34.7754-16.8721,28.3076h-8.249l-16.7783-27.3706v33.8384h-17.1533V27.6715h15.2783l23.0596,37.8687,22.4961-37.8687h15.2783l.1875,65.6143h-17.0596Z"></path><path class="uuid-0ce37fae-31ab-4405-8f3e-f1f1b819fc45" d="m669.3424,87.3805l6.0928-13.6851c5.8115,3.8428,14.0596,6.4673,21.6523,6.4673,7.6865,0,10.6855-2.1558,10.6855-5.3428,0-10.4043-37.3066-2.812-37.3066-27.1831,0-11.7168,9.5615-21.2778,29.0586-21.2778,8.5293,0,17.3408,1.9688,23.8086,5.7178l-5.7178,13.7793c-6.2803-3.3745-12.4668-5.0615-18.1846-5.0615-7.7803,0-10.5928,2.6245-10.5928,5.9053,0,10.0293,37.2129,2.5308,37.2129,26.7144,0,11.4355-9.5605,21.1841-29.0576,21.1841-10.7793,0-21.4648-2.9058-27.6514-7.2178Z"></path></svg>