<svg xmlns="http://www.w3.org/2000/svg" id="uuid-c7e023ad-3e2e-47c3-94c2-aaea1e02ed37" viewBox="0 0 715.475 166.2465"><defs><style>.uuid-55844681-7bb6-4f49-91ba-91025c47de2c{fill:#0054a6;}</style></defs><path class="uuid-55844681-7bb6-4f49-91ba-91025c47de2c" d="m150.975,150.8875c2-2,3.9-4.1,5.7-6.3l-43.4-43.3c-1.6,2.3-3.4,4.4-5.4,6.5-2,2-4.1,3.7-6.2,5.3l43.4,43.4c2-1.8,4-3.6,5.9-5.6Z"></path><path d="m24.375,24.2875c-32.5,32.5-32.5,85.1,0,117.6,26.4,26.4,66,31.3,97.4,14.9l-22.3-22.3c-18.6,5.9-39.7,1.5-54.5-13.2-21-21.1-21-55.3.1-76.3,21.1-21.1,55.2-21.1,76.3,0,14.6,14.6,19.1,35.6,13.4,54.1l22.3,22.3c16.2-31.3,11.2-70.7-15-97-32.6-32.5-85.2-32.5-117.7-.1Z"></path><path d="m174.475,98.1875v-55.9h28.5v55c0,17.3,7.2,24.2,19.2,24.2,11.8,0,19-6.9,19-24.2v-55h28.1v55.9c0,30.1-17.6,46.9-47.4,46.9-29.9,0-47.4-16.8-47.4-46.9Z"></path><path d="m276.075,92.6875c0-30.2,23.8-52.4,56-52.4s56,22.2,56,52.4-23.8,52.4-56,52.4-56-22.2-56-52.4Zm83.2,0c0-17.4-12-28.8-27.2-28.8s-27.2,11.4-27.2,28.8,12,28.8,27.2,28.8,27.2-11.4,27.2-28.8Z"></path><path d="m439.975,116.2875h-15.6v26.8h-28.5V42.2875h46.1c27.5,0,44.8,14.3,44.8,37.3,0,14.8-7.2,25.8-19.7,31.8l21.7,31.7h-30.5l-18.3-26.8Zm.3-51.5h-15.8v29.5h15.8c11.8,0,17.7-5.5,17.7-14.7,0-9.4-5.9-14.8-17.7-14.8Z"></path><path d="m494.375,98.1875v-55.9h28.5v55c0,17.3,7.2,24.2,19.2,24.2,11.8,0,19-6.9,19-24.2v-55h28.1v55.9c0,30.1-17.6,46.9-47.4,46.9s-47.4-16.8-47.4-46.9Z"></path><path d="m689.275,143.0875l-.3-53.4-25.9,43.5h-12.7l-25.8-42v52h-26.4V42.2875h23.5l35.4,58.2,34.6-58.2h23.5l.3,100.8h-26.2Z"></path></svg>