<svg xmlns="http://www.w3.org/2000/svg" xmlns:xlink="http://www.w3.org/1999/xlink" id="a" width="278.82" height="55.227" viewBox="0 0 278.82 55.227"><defs><style>.e{fill:url(#c);}.f{fill:#181a18;}.g{fill:url(#b);}.h{fill:url(#d);}.i{fill:#bcbec0;}</style><linearGradient id="b" x1="106.1112" y1="755.9606" x2="137.2042" y2="725.7996" gradientTransform="translate(34.7449 -704.4104) rotate(8.0365) scale(.8655 .9998) skewX(-.0145)" gradientUnits="userSpaceOnUse"><stop offset=".105" stop-color="#ed1c24"></stop><stop offset="1" stop-color="#8d0405"></stop></linearGradient><linearGradient id="c" x1="349.2947" y1="699.1546" x2="387.1106" y2="662.4706" xlink:href="#b"></linearGradient><linearGradient id="d" x1="249.5691" y1="751.8195" x2="268.5279" y2="751.8195" gradientTransform="translate(1.042 -706.9427) rotate(.1719)" xlink:href="#b"></linearGradient></defs><polygon class="i" points="47.174 51.965 0 55.227 52.689 42.414 47.174 51.965"></polygon><polygon class="g" points="50.579 50.348 0 54.111 57.909 38.676 50.579 50.348"></polygon><polygon class="i" points="215.685 34.133 271.728 30.339 278.82 1.507 221.463 16.611 215.685 34.133"></polygon><polygon class="e" points="215.848 32.645 270.525 28.831 277.615 0 220.474 15.494 215.848 32.645"></polygon><path class="h" d="M257.584,36.289c.381,1.104,.703,1.914,.967,2.43,.265,.512,.593,.777,.986,.793,.469-.057,.984-.463,1.547-1.217l-1.246,5.404-.043,.305-.045,.312c.006,.302,.103,.48,.291,.544,.201-.027,.42-.152,.666-.378,.244-.231,.453-.495,.623-.799,.139-.227,.402-.586,.785-1.076,.391-.5,.674-.907,.852-1.235,.045,.293,.08,.625,.107,.994,.031,.364,.07,.61,.123,.737,.055,.123,.164,.189,.332,.203,.133-.016,.297-.053,.49-.106l.983-.3c.459-.143,.851-.262,1.168-.354-.42,1-.656,1.799-.709,2.402,.025,.395,.18,.645,.459,.752,.279,.104,.742,.153,1.394,.145-.638,.551-1.304,1.08-1.998,1.586-.693,.506-1.254,.914-1.683,1.222-.43,.309-.737,.571-.928,.797-.188,.223-.285,.473-.295,.76,.051,.27,.16,.606,.324,1.014-.472-.018-.861-.061-1.174-.121-.312-.065-.806-.182-1.484-.348-.678-.168-1.123-.25-1.33-.246-.332,.002-.498,.207-.492,.617l.041,3.883-.828,.008-.039-3.883c-.006-.408-.25-.609-.741-.606-.349,.006-.972,.139-1.865,.401-.896,.258-1.479,.392-1.75,.394,.094-.373,.141-.668,.137-.877-.004-.392-.131-.712-.379-.964-.25-.25-.846-.729-1.783-1.428-.936-.699-1.834-1.432-2.692-2.197,.266,.046,.493,.062,.688,.062,.678-.006,1.016-.295,1.008-.865-.004-.459-.287-1.299-.85-2.522,.416,.1,.93,.266,1.547,.493,.615,.226,1.01,.343,1.182,.357,.349-.004,.519-.283,.515-.838-.002-.209-.039-.607-.105-1.201,.193,.15,.354,.309,.48,.48l.801,1.137c.416,.584,.764,1.039,1.043,1.363,.363,.371,.617,.582,.762,.631,.146-.002,.215-.187,.211-.547-.006-.484-.049-.968-.131-1.445l-1.207-4.6c.642,.713,1.183,1.096,1.617,1.141,.418-.023,.738-.303,.967-.83,.226-.536,.461-1.329,.701-2.384"></path><path class="f" d="M55.116,27.01l-2.074,3.062c-.511,.767-.957,1.691-1.212,2.744h-3.924c1.021-1.053,1.914-2.138,3.159-3.924l10.561-15.156-.51-1.34h6.668l3.382,16.559c.383,1.915,.67,3.223,1.212,3.86h-7.53c.064-.128,.127-.286,.191-.479,.16-.638,.127-1.532-.16-2.902l-.479-2.424h-9.284Zm8.774-2.616l-1.563-7.721-5.329,7.721h6.892Zm12.608,8.423c-2.191,0-3.115-1.083-2.534-3.433l2.508-10.031c.581-2.349,2.059-3.432,4.25-3.432h9.82l-.238,2.561c-.686-.343-1.769-.396-2.508-.396h-5.095c-.712,0-1.003,.238-1.188,1.003l-2.64,10.561c-.185,.765-.026,1.002,.687,1.002h5.095c.739,0,1.848-.053,2.719-.396l-1.056,2.562-9.82-.001Zm15.153,0c-2.191,0-3.115-1.083-2.534-3.433l2.508-10.031c.581-2.349,2.059-3.432,4.25-3.432h9.82l-.238,2.561c-.686-.343-1.769-.396-2.508-.396h-5.095c-.712,0-1.003,.238-1.188,1.003l-2.64,10.561c-.185,.765-.026,1.002,.687,1.002h5.095c.739,0,1.848-.053,2.719-.396l-1.056,2.562-9.82-.001Zm11.352,0c.449-.792,.686-1.506,.871-2.271l3.088-12.354c.185-.765,.317-1.478,.264-2.27h13.859l-.238,2.561c-.687-.343-1.769-.396-2.508-.396h-6.388l-1.267,5.121h5.57c.739,0,1.821-.053,2.692-.396l-.712,2.957c-.713-.343-1.795-.396-2.534-.396h-5.57l-1.32,5.28h6.389c.739,0,1.848-.053,2.719-.396l-1.056,2.562h-13.859v-.002Zm32.285-3.431c-.581,2.35-2.033,3.433-4.224,3.433h-11.509l.211-2.562c.713,.343,1.769,.396,2.508,.396h6.943c.712,0,1.029-.237,1.214-1.002l.554-2.218c.185-.766,0-1.003-.713-1.003h-6.309c-2.191,0-3.088-1.083-2.508-3.432l.897-3.643c.581-2.349,2.059-3.432,4.25-3.432h11.536l-.238,2.561c-.686-.343-1.769-.396-2.508-.396h-6.969c-.713,0-1.003,.238-1.188,1.003l-.422,1.637c-.185,.766,0,1.003,.713,1.003h6.309c2.191,0,3.088,1.082,2.508,3.432l-1.055,4.223Zm17.609,0c-.581,2.35-2.032,3.433-4.225,3.433h-11.509l.211-2.562c.713,.343,1.769,.396,2.508,.396h6.943c.713,0,1.029-.237,1.215-1.002l.554-2.218c.186-.766,0-1.003-.713-1.003h-6.31c-2.19,0-3.088-1.083-2.507-3.432l.898-3.643c.58-2.349,2.06-3.432,4.25-3.432h11.535l-.237,2.561c-.687-.343-1.769-.396-2.508-.396h-6.969c-.713,0-1.003,.238-1.188,1.003l-.422,1.637c-.185,.766,0,1.003,.713,1.003h6.31c2.19,0,3.089,1.082,2.508,3.432l-1.057,4.223h0Zm11.643-13.463c-.476,.792-.713,1.505-.896,2.27l-3.089,12.354c-.186,.765-.316,1.479-.237,2.27h-5.597c.448-.791,.687-1.505,.871-2.27l3.088-12.354c.187-.765,.316-1.478,.265-2.27h5.595Zm2.35,2.27c.184-.765,.315-1.478,.264-2.27h13.383c2.112,0,3.089,1.056,2.535,3.273l-.607,2.402c-.476,1.901-1.373,2.429-4.383,2.561l-.024,.08c2.956,.132,3.59,.66,3.114,2.561l-.688,2.745c-.554,2.217-2.06,3.273-4.17,3.273h-13.384c.449-.792,.688-1.506,.871-2.271l3.089-12.354h0Zm1.848,12.459h5.781c.633,0,.948-.291,1.16-1.135l.766-3.009c.212-.845,.027-1.135-.606-1.135h-5.78l-1.321,5.279h0Zm1.874-7.443h5.78c.635,0,.924-.29,1.136-1.135l.713-2.851c.211-.845,.053-1.135-.581-1.135h-5.781l-1.267,5.121Zm20.935-7.286c-.475,.792-.713,1.505-.896,2.27l-3.115,12.459h6.389c.739,0,1.849-.053,2.72-.396l-1.057,2.562h-13.858c.448-.792,.687-1.506,.871-2.271l3.089-12.354c.185-.765,.316-1.478,.265-2.27h5.592Zm5.835,16.894c.448-.792,.688-1.506,.871-2.271l3.089-12.354c.186-.765,.316-1.478,.265-2.27h13.858l-.237,2.561c-.688-.343-1.77-.396-2.509-.396h-6.389l-1.267,5.121h5.568c.74,0,1.822-.053,2.693-.396l-.713,2.957c-.713-.343-1.795-.396-2.534-.396h-5.567l-1.319,5.28h6.389c.738,0,1.848-.053,2.719-.396l-1.057,2.562h-13.859v-.002h-.001Z"></path><path class="f" d="M59.485,48.909l-2.074,3.062c-.511,.767-.957,1.691-1.212,2.744h-3.924c1.021-1.053,1.914-2.139,3.159-3.925l10.561-15.155-.51-1.34h6.668l3.382,16.559c.383,1.914,.67,3.224,1.212,3.861h-7.53c.064-.128,.127-.287,.191-.479,.16-.64,.127-1.532-.16-2.904l-.479-2.425-9.284,.002h0Zm8.774-2.616l-1.563-7.721-5.329,7.721h6.892Zm12.608,8.424c-2.191,0-3.115-1.083-2.534-3.432l2.508-10.031c.581-2.35,2.059-3.432,4.25-3.432h9.82l-.238,2.561c-.686-.344-1.769-.396-2.508-.396h-5.095c-.712,0-1.003,.237-1.188,1.004l-2.64,10.559c-.185,.766-.026,1.003,.687,1.003h5.095c.739,0,1.848-.053,2.719-.396l-1.056,2.561-9.82-.001Zm15.153,0c-2.191,0-3.115-1.083-2.534-3.432l2.508-10.031c.581-2.35,2.059-3.432,4.25-3.432h9.82l-.238,2.561c-.686-.344-1.769-.396-2.508-.396h-5.095c-.712,0-1.003,.237-1.188,1.004l-2.64,10.559c-.185,.766-.026,1.003,.687,1.003h5.095c.739,0,1.848-.053,2.719-.396l-1.056,2.561-9.82-.001Zm11.352,0c.449-.793,.686-1.506,.871-2.271l3.088-12.354c.185-.766,.317-1.479,.264-2.27h13.859l-.238,2.561c-.687-.344-1.769-.396-2.508-.396h-6.388l-1.267,5.121h5.57c.739,0,1.821-.054,2.692-.396l-.712,2.957c-.713-.344-1.795-.396-2.534-.396h-5.57l-1.32,5.279h6.389c.739,0,1.848-.053,2.719-.396l-1.056,2.561h-13.859Zm32.286-3.432c-.581,2.349-2.033,3.432-4.224,3.432h-11.509l.211-2.561c.713,.343,1.769,.396,2.508,.396h6.943c.712,0,1.029-.237,1.214-1.003l.554-2.218c.185-.767,0-1.003-.713-1.003h-6.309c-2.191,0-3.088-1.082-2.508-3.433l.897-3.643c.581-2.35,2.059-3.432,4.25-3.432h11.536l-.236,2.561c-.688-.344-1.771-.396-2.509-.396h-6.969c-.713,0-1.003,.237-1.188,1.004l-.422,1.636c-.185,.766,0,1.003,.713,1.003h6.309c2.191,0,3.089,1.082,2.508,3.432l-1.056,4.225h0Zm17.608,0c-.581,2.349-2.032,3.432-4.225,3.432h-11.51l.211-2.561c.713,.343,1.77,.396,2.508,.396h6.943c.713,0,1.028-.237,1.215-1.003l.554-2.218c.186-.767,0-1.003-.713-1.003h-6.31c-2.19,0-3.088-1.082-2.509-3.433l.898-3.643c.58-2.35,2.059-3.432,4.25-3.432h11.535l-.237,2.561c-.687-.344-1.769-.396-2.508-.396h-6.969c-.713,0-1.003,.237-1.188,1.004l-.422,1.636c-.185,.766,0,1.003,.713,1.003h6.31c2.19,0,3.089,1.082,2.508,3.432l-1.054,4.225h0Zm4.78,3.432c-2.189,0-3.114-1.083-2.534-3.432l2.509-10.031c.58-2.35,2.059-3.432,4.25-3.432h9.979c2.191,0,3.088,1.082,2.508,3.432l-2.508,10.031c-.581,2.349-2.033,3.432-4.225,3.432h-9.979Zm7.971-2.165c.713,0,1.028-.237,1.215-1.003l2.64-10.559c.186-.767,0-1.004-.713-1.004h-4.91c-.712,0-1.003,.237-1.188,1.004l-2.641,10.559c-.186,.766-.026,1.003,.687,1.003h4.91Zm13.385-.106c-.185,.765-.316,1.478-.236,2.271h-5.598c.449-.793,.688-1.506,.871-2.271l3.09-12.354c.184-.766,.315-1.479,.264-2.27h13.383c2.112,0,3.09,1.055,2.535,3.272l-.871,3.433c-.37,1.504-1.24,2.532-3.301,2.823l.793,5.57c.105,.712,.343,1.319,.767,1.795h-5.649l-1.056-7.445h-3.696l-1.296,5.176Zm1.849-7.338h5.78c.635,0,.924-.289,1.136-1.135l.713-2.852c.211-.844,.054-1.135-.581-1.135h-5.78l-1.268,5.122Zm21.778-7.286c-.476,.791-.713,1.504-.896,2.27l-3.089,12.354c-.185,.765-.316,1.478-.236,2.271h-5.598c.448-.793,.688-1.506,.871-2.271l3.089-12.354c.186-.766,.316-1.479,.265-2.27h5.594Zm-1.873,16.895c.449-.793,.686-1.506,.871-2.271l3.088-12.354c.186-.766,.317-1.479,.265-2.27h13.858l-.237,2.561c-.687-.344-1.769-.396-2.508-.396h-6.388l-1.269,5.121h5.57c.738,0,1.82-.054,2.692-.396l-.714,2.957c-.713-.344-1.795-.396-2.533-.396h-5.57l-1.319,5.279h6.389c.738,0,1.848-.053,2.719-.396l-1.055,2.561h-13.859Zm32.285-3.432c-.58,2.349-2.032,3.432-4.224,3.432h-11.51l.211-2.561c.713,.343,1.771,.396,2.508,.396h6.943c.712,0,1.029-.237,1.214-1.003l.554-2.218c.187-.767,0-1.003-.713-1.003h-6.309c-2.191,0-3.088-1.082-2.508-3.433l.896-3.643c.581-2.35,2.061-3.432,4.251-3.432h11.535l-.238,2.561c-.686-.344-1.768-.396-2.508-.396h-6.969c-.713,0-1.003,.237-1.188,1.004l-.422,1.636c-.186,.766,0,1.003,.713,1.003h6.31c2.19,0,3.088,1.082,2.508,3.432l-1.054,4.225h0Z"></path></svg>