<svg xmlns="http://www.w3.org/2000/svg" id="uuid-db048822-da75-4c7a-ba82-4a17bff2ccbe" viewBox="0 0 634.1131 120.5528"><defs><style>.uuid-831248db-77b1-41f0-a799-1d3c346fe59e,.uuid-ae3560df-f978-4b7c-8cb2-725db0a74a64{fill:#181918;}.uuid-1035078b-ae2b-431a-b63f-d609b1bc8df4{fill:#afaeae;}.uuid-1035078b-ae2b-431a-b63f-d609b1bc8df4,.uuid-ae3560df-f978-4b7c-8cb2-725db0a74a64,.uuid-68cbcdd8-4ee2-4006-acd8-e928c7179f5a{fill-rule:evenodd;}.uuid-68cbcdd8-4ee2-4006-acd8-e928c7179f5a,.uuid-af8b5973-2f57-480c-95ca-dd467242d199{fill:#ca2027;}.uuid-446f4509-d223-4ecf-98a9-45f3968394a9{fill:#231f20;}</style></defs><g id="uuid-0b81e257-609f-4337-a9db-666bc321fafa"><path class="uuid-831248db-77b1-41f0-a799-1d3c346fe59e" d="m501.4015,100.2406h16.8955l7.2563-36.1735c.2165-1.0109.397-2.0758.5415-3.195.1444-1.1191.2166-2.2924.2166-3.5199,0-3.0325-.4694-5.5776-1.408-7.6354s-2.1299-3.7004-3.574-4.9278c-1.4441-1.2275-2.9965-2.112-4.6571-2.6535-1.6607-.5415-3.213-.8123-4.6571-.8123-2.5271,0-5.0722.4874-7.6354,1.4621-2.5632.9748-4.7834,2.4008-6.6607,4.278l.9747-5.0903h-16.1373l-11.5885,58.2676h16.8954l7.0398-35.1988c.6498-3.2491,1.8231-5.4693,3.5199-6.6607,1.6968-1.1913,3.5198-1.787,5.4693-1.787,1.0831,0,2.1661.4332,3.2491,1.2996,1.0831.8665,1.6246,2.2744,1.6246,4.2239,0,1.0108-.1083,1.9856-.3249,2.9242l-7.0398,35.1988Z"></path><path class="uuid-831248db-77b1-41f0-a799-1d3c346fe59e" d="m550.8078,71.1068c1.0109-5.343,2.7437-9.3141,5.1985-11.9134,1.5885-1.7329,3.538-2.5993,5.8484-2.5993,1.2996,0,2.4368.343,3.4116,1.0289.9747.6859,1.8952,1.6065,2.7617,2.7617l12.7799-11.2636c-1.6607-2.0939-3.8809-3.917-6.6607-5.4694-2.7799-1.5523-6.3358-2.3285-10.668-2.3285-2.5271,0-5.2707.3249-8.2311.9748-2.9603.6498-5.8304,2.0397-8.6101,4.1697-2.7799,2.1299-5.3069,5.1444-7.5813,9.0434-2.2745,3.8989-3.9893,9.0975-5.1445,15.5957-.5776,3.1048-.8665,6.1373-.8665,9.0976,0,3.6823.6499,6.8412,1.9494,9.4766,1.2997,2.6354,2.9604,4.7834,4.9821,6.4441,2.0217,1.6607,4.278,2.87,6.769,3.6282,2.491.7581,4.9279,1.1372,7.3106,1.1372,3.899,0,7.491-.6318,10.7762-1.8954,3.2853-1.2635,6.0831-2.9422,8.3936-5.0361l-9.3142-12.2383c-1.2274,1.2275-2.491,2.1841-3.7906,2.8701-1.2997.6859-2.7076,1.0289-4.2238,1.0289-2.3105,0-3.8629-.7581-4.6571-2.2744-.7943-1.5163-1.1914-3.3213-1.1914-5.4152,0-1.2275.0722-2.3827.2166-3.4657.1444-1.0831.3249-2.2022.5416-3.3575Z"></path><path class="uuid-831248db-77b1-41f0-a799-1d3c346fe59e" d="m598.5893,76.522h33.5743c.5776-2.3105,1.0469-4.657,1.408-7.0397.361-2.3827.5414-4.6932.5414-6.9315,0-3.3214-.5594-6.2997-1.6786-8.9351-1.1191-2.6354-2.6534-4.8736-4.6029-6.7148-1.9495-1.8412-4.2419-3.2311-6.8773-4.1697-2.6354-.9387-5.5055-1.408-8.6102-1.408-4.9099,0-9.2419,1.0469-12.9965,3.1407-3.7545,2.0939-6.8953,4.9279-9.4224,8.502-2.5272,3.5741-4.4224,7.7076-5.686,12.4008-1.2636,4.6932-1.8953,9.6391-1.8953,14.8377,0,4.1156.74,7.491,2.2202,10.1264s3.3213,4.7473,5.5235,6.3358,4.621,2.6896,7.2564,3.3033c2.6354.6137,5.1445.9206,7.5271.9206,4.3322,0,8.5019-.7221,12.5092-2.1661,4.0072-1.4441,7.4909-3.574,10.4513-6.39l-8.4477-11.047c-1.8051,1.7329-3.7184,3.0686-5.7401,4.0073-2.0217.9386-4.26,1.4079-6.7149,1.4079-2.8881,0-5.0361-.722-6.444-2.1661-1.408-1.444-2.112-3.3213-2.112-5.6318,0-.361.0181-.7581.0541-1.1913.0362-.4332.0903-.8303.1624-1.1914Zm6.6066-19.0615c1.8773-1.5162,3.9351-2.2744,6.1734-2.2744s3.917.6679,5.0361,2.0037c1.1193,1.3357,1.6787,3.1227,1.6787,5.361,0,.361-.018.8123-.0541,1.3538-.0361.5415-.1264,1.0289-.2708,1.4621h-17.0038c1.0831-3.7545,2.5633-6.3899,4.4405-7.9062Z"></path><polygon class="uuid-831248db-77b1-41f0-a799-1d3c346fe59e" points="403.4555 41.973 387.7514 74.4643 384.5023 41.973 367.8235 41.973 376.5961 100.2406 389.4843 100.2406 421.434 41.973 403.4555 41.973"></polygon><path class="uuid-831248db-77b1-41f0-a799-1d3c346fe59e" d="m258.3777,100.2406l11.5886-58.2676h-16.8954l-7.0399,35.1989c-.6498,3.2491-1.8231,5.4693-3.5198,6.6607-1.6968,1.1913-3.5199,1.787-5.4694,1.787-1.0829,0-2.1661-.4332-3.2491-1.2997-1.0831-.8664-1.6246-2.2743-1.6246-4.2238,0-.9387.1083-1.9134.3249-2.9242l7.0398-35.1989h-16.8954l-7.2564,36.1736c-.2166,1.0109-.3971,2.0758-.5415,3.195-.1444,1.1191-.2166,2.2924-.2166,3.5199,0,3.0325.4693,5.5776,1.4079,7.6354.9387,2.0578,2.13,3.7004,3.5741,4.9279,1.444,1.2275,2.9963,2.112,4.657,2.6534,1.6607.5415,3.2131.8123,4.657.8123,2.5271,0,5.0722-.4874,7.6354-1.4622,2.5632-.9747,4.7835-2.4008,6.6607-4.278l-.9747,5.0903h16.1373Z"></path><path class="uuid-831248db-77b1-41f0-a799-1d3c346fe59e" d="m297.495,57.4605h8.6644l2.5992-12.9965h-8.6642l3.3574-16.8954h-16.8955l-3.3574,16.8954h-5.0903l-2.5993,12.9965h5.0903l-4.5488,22.7439c-.1444.7942-.3068,1.805-.4873,3.0325-.1805,1.2275-.2708,2.3827-.2708,3.4657,0,3.7546,1.2274,6.8593,3.6823,9.3141,1.3719,1.3718,3.0686,2.4188,5.0903,3.1408,2.0217.722,4.5488,1.083,7.5814,1.083h6.8232l2.8159-14.2961h-4.5488c-2.7437,0-4.1155-1.0469-4.1155-3.1408,0-.6498.0722-1.3358.2165-2.0578l4.6571-23.2854Z"></path><path class="uuid-831248db-77b1-41f0-a799-1d3c346fe59e" d="m138.1406,100.2406h19.1698l5.9568-12.13h22.8521l1.0831,12.13h18.3034l-11.3719-77.1125h-13.9713l-42.022,77.1125Zm46.5708-26.7511h-14.0795l11.6968-22.7438,2.3827,22.7438Z"></path><path class="uuid-831248db-77b1-41f0-a799-1d3c346fe59e" d="m459.5766,100.2406l7.3647-36.715c.1444-.7943.2888-1.6788.4332-2.6535.1444-.9747.2166-1.8953.2166-2.7617,0-3.0326-.6137-5.6138-1.8412-7.7438-1.2274-2.13-2.852-3.8628-4.8736-5.1986-2.0217-1.3357-4.2961-2.3105-6.8232-2.9242s-5.1263-.9206-7.7979-.9206c-5.704,0-10.2347.722-13.5922,2.1661-3.3574,1.4441-6.1552,3.213-8.3935,5.3069l8.4477,11.2636c1.083-1.2274,2.5451-2.3105,4.3863-3.2491s3.9892-1.4079,6.4442-1.4079c2.527,0,4.3141.4873,5.3611,1.4621,1.0469.9747,1.5704,2.1841,1.5704,3.6281,0,.7943-.1084,1.6246-.3249,2.491l-.4332,2.0578h-12.1302c-3.3935,0-6.5523.4693-9.4765,1.408-2.9242.9386-5.4333,2.4187-7.5272,4.4404-1.6606,1.5885-2.9422,3.538-3.8448,5.8485-.9025,2.3104-1.3536,5.018-1.3536,8.1228,0,1.9494.3428,3.8808,1.0287,5.7942s1.7148,3.6282,3.0867,5.1445c1.3719,1.5162,3.0686,2.7437,5.0903,3.6823,2.0217.9387,4.3682,1.408,7.0397,1.408,2.9604,0,5.4694-.5416,7.5272-1.6246,2.0578-1.0831,3.7726-2.3105,5.1444-3.6823l-.9747,4.657h16.2456Zm-18.3034-13.8087c-1.2274.6137-2.6354.9207-4.2238.9207-1.6607,0-2.9242-.4333-3.7907-1.2997-.8664-.8664-1.2996-1.9134-1.2996-3.1408,0-1.6606.5956-3.1769,1.787-4.5488,1.1913-1.3718,3.0144-2.0578,5.4693-2.0578h8.2311l-.3249,1.6246c-.2166,1.2275-.5415,2.4007-.9747,3.5199-.4332,1.1191-1.0469,2.0758-1.8412,2.87-.7942.7943-1.805,1.4982-3.0325,2.112Z"></path><path class="uuid-831248db-77b1-41f0-a799-1d3c346fe59e" d="m354.4284,46.0886c-1.9134-1.5885-4.0795-2.7798-6.4983-3.574-2.4187-.7943-4.8917-1.1913-7.4188-1.1913-4.0434,0-7.6174.6318-10.7221,1.8953-3.1048,1.2636-5.704,2.9423-7.7979,5.0362-1.2996,1.2996-2.4549,2.6715-3.4657,4.1155-1.0109,1.4441-1.8953,3.0506-2.6535,4.8196-.7581,1.7689-1.4621,3.7906-2.1119,6.065-.6498,2.2744-1.2635,4.8917-1.8412,7.852-.2888,1.3719-.5594,3.0145-.8122,4.9279-.2528,1.9134-.3791,3.7726-.3791,5.5776,0,3.2492.5776,6.0831,1.7329,8.5019,1.1551,2.4188,2.6895,4.4224,4.6029,6.0109,1.9134,1.5884,4.0794,2.7798,6.4982,3.574,2.4189.7943,4.8918,1.1914,7.4189,1.1914,4.0433,0,7.6173-.6318,10.722-1.8954,3.1048-1.2635,5.704-2.9422,7.798-5.0361,1.2996-1.2997,2.4548-2.6714,3.4656-4.1155,1.0108-1.4441,1.8953-3.0506,2.6534-4.8196.7582-1.769,1.4621-3.7906,2.112-6.065.6498-2.2744,1.2635-4.8917,1.8411-7.8521.2889-1.3718.5596-3.0144.8123-4.9278s.3791-3.7726.3791-5.5777c0-3.2491-.5776-6.083-1.7329-8.5018-1.1552-2.4188-2.6896-4.4224-4.6029-6.0109Zm-10.6138,19.0074c-.1083,1.2635-.4513,3.2671-1.0289,6.0108-.5776,3.0326-1.2274,5.5957-1.9495,7.6896-.722,2.0939-1.6968,3.7185-2.9242,4.8737-1.2997,1.2997-3.0325,1.9495-5.1986,1.9495-1.7328,0-3.0325-.5415-3.8989-1.6246-.8665-1.083-1.2997-2.5632-1.2997-4.4404,0-.3611.0542-1.1733.1625-2.4369.1083-1.2635.4512-3.2672,1.0289-6.0109.5776-3.0325,1.2274-5.5957,1.9494-7.6895.722-2.0939,1.6968-3.7185,2.9242-4.8737,1.2997-1.2997,3.0325-1.9495,5.1986-1.9495,1.7329,0,3.0326.5415,3.899,1.6246.8665,1.083,1.2997,2.5631,1.2997,4.4404,0,.361-.0542,1.1733-.1625,2.4369Z"></path></g><g><path id="uuid-4435f0fa-5c18-4377-b307-869764594485" class="uuid-446f4509-d223-4ecf-98a9-45f3968394a9" d="m120.5528,60.2764c0-9.3784-2.1427-18.2559-5.9639-26.1713l-10.8063,9.2625c2.0399,5.2445,3.1713,10.9429,3.1713,16.9088,0,25.7792-20.8982,46.6774-46.6774,46.6774-19.7243,0-36.5785-12.2403-43.4137-29.5341l-3.2637,1.5562-6.412,9.8598c10.1793,18.8825,30.1339,31.7171,53.0895,31.7171,33.2897,0,60.2764-26.9867,60.2764-60.2764Z"></path><path id="uuid-0558b845-4c33-44c0-99c3-d0d218b6f2c4" class="uuid-af8b5973-2f57-480c-95ca-dd467242d199" d="m13.5989,60.2764c0-25.7793,20.8982-46.6775,46.6775-46.6775,21.8378,0,40.1679,14.9985,45.264,35.2549l9.1217-14.592C104.9508,13.9963,84.2493,0,60.2764,0,26.9866,0,0,26.9866,0,60.2764c0,10.4999,2.6897,20.3694,7.4101,28.9662l8.5773-14.2288c-1.5414-4.6342-2.3885-9.5854-2.3885-14.7373Z"></path><path id="uuid-a5043290-a590-4411-994c-168ff37a7a29" class="uuid-68cbcdd8-4ee2-4006-acd8-e928c7179f5a" d="m84.7615,82.0971c1.0137-1.626,29.9815-47.9647,29.9815-47.9647-2.3327-4.6835-5.3805-8.8466-8.8015-12.7366l-30.5359,48.8747s8.3423,13.4526,9.356,11.8266Z"></path><path id="uuid-a2261234-8744-4eb8-b21e-c963b18829c5" class="uuid-1035078b-ae2b-431a-b63f-d609b1bc8df4" d="m47.1397,51.8346s17.9122,28.6735,18.9188,30.2811c1.0066,1.6075,1.0135,1.6075,2.9504,1.6075h12.8352q1.9018,0,2.9175-1.626c-1.0137,1.626-9.356-11.8266-9.356-11.8266,0,0-17.8106-28.5141-18.8696-30.198-1.0591-1.6839-1.0455-1.6839-2.824-1.6839h-13.0997q-1.8343,0-2.8556,1.6555c1.0263-1.6555,9.3831,11.7905,9.3831,11.7905Z"></path><path id="uuid-7230cc5a-f79b-40c8-a057-3a87a8a396f9" class="uuid-ae3560df-f978-4b7c-8cb2-725db0a74a64" d="m37.7566,40.044c-1.0263,1.6555-30.3495,48.5739-30.3495,48.5739,2.3871,4.6157,5.3552,8.8824,8.8074,12.7033l30.9252-49.4867s-8.3568-13.446-9.3831-11.7905Z"></path></g></svg>